<?xml version="1.0" encoding="utf-8"?>
<!-- Generator: Adobe Illustrator 16.0.0, SVG Export Plug-In . SVG Version: 6.00 Build 0)  -->
<!DOCTYPE svg PUBLIC "-//W3C//DTD SVG 1.1//EN" "http://www.w3.org/Graphics/SVG/1.1/DTD/svg11.dtd">
<svg version="1.1" id="Store_1_" xmlns="http://www.w3.org/2000/svg" xmlns:xlink="http://www.w3.org/1999/xlink" x="0px" y="0px"
	 width="512px" height="512px" viewBox="0 0 512 512" enable-background="new 0 0 512 512" xml:space="preserve">
<circle id="Background_4_" fill="#6ECAD5" cx="256" cy="256" r="256"/>
<path id="Shadow_4_" opacity="0.1" d="M262.971,511.902c129.693-3.468,235.326-103.392,247.789-230.647L361.86,136.31
	L105.434,239.257l51.457,52.946l9.117,53.888l-39.48,30.093L262.971,511.902z"/>
<g id="Store">
	<g>
		<rect x="132.105" y="215.053" fill="#E6E6E6" width="254.145" height="145.768"/>
		<path fill="#F05B88" d="M393.899,371.447c0,3.522-2.854,6.375-6.373,6.375H129.128c-3.519,0-6.375-2.853-6.375-6.375v-4.249
			c0-3.52,2.855-6.377,6.375-6.377h258.398c3.519,0,6.373,2.857,6.373,6.377V371.447z"/>
		<g>
			<rect x="296.149" y="221.425" fill="#F7931E" width="69.7" height="139.396"/>
			<g>
				<rect x="305.075" y="229.077" fill="#44BACA" width="51.849" height="58.862"/>
				<polygon fill="#65C0CB" points="305.075,287.938 305.075,229.077 356.924,229.077 				"/>
				<polygon fill="#238CBA" points="305.075,229.077 305.075,230.988 355.331,230.988 355.331,287.938 356.924,287.938 
					356.924,229.077 				"/>
			</g>
			<g>
				<rect x="305.075" y="295.585" fill="#40B0BF" width="51.849" height="58.862"/>
				<polygon fill="#44BACA" points="356.924,295.585 305.075,295.585 305.075,354.447 				"/>
				<polygon fill="#238CBA" points="305.075,354.447 305.075,352.535 355.331,352.535 355.331,295.585 356.924,295.585 
					356.924,354.447 				"/>
			</g>
		</g>
		<path fill="#B9BBBD" d="M306.669,291.127c0,2.636-2.143,4.779-4.781,4.779c-2.641,0-4.78-2.144-4.78-4.779
			c0-2.641,2.14-4.784,4.78-4.784C304.526,286.343,306.669,288.486,306.669,291.127z"/>
		<path fill="#F2F2F2" d="M306.351,291.127c0,2.462-1.999,4.458-4.463,4.458c-2.465,0-4.463-1.996-4.463-4.458
			c0-2.466,1.998-4.465,4.463-4.465C304.352,286.662,306.351,288.661,306.351,291.127z"/>
		<path fill="#E68A1E" d="M258.326,310.248c0,2.23-1.993,4.04-4.451,4.04h-91.822c-2.459,0-4.451-1.81-4.451-4.04l0,0
			c0-2.228,1.992-4.035,4.451-4.035h91.822C256.333,306.213,258.326,308.021,258.326,310.248L258.326,310.248z"/>
		<g>
			<rect x="163.552" y="226.102" fill="#F7931E" width="88.399" height="80.111"/>
			<g>
				<rect x="172.053" y="232.263" fill="#44BACA" width="73.097" height="73.95"/>
				<polygon fill="#65C0CB" points="172.053,306.213 172.053,232.263 245.149,232.263 				"/>
				<polygon fill="#238CBA" points="172.053,232.263 172.053,234.664 242.904,234.664 242.904,306.213 245.149,306.213 
					245.149,232.263 				"/>
			</g>
			<path fill="#E68A1E" d="M258.326,229.077c0,2.23-1.993,4.038-4.451,4.038h-91.822c-2.459,0-4.451-1.807-4.451-4.038l0,0
				c0-2.228,1.992-4.035,4.451-4.035h91.822C256.333,225.042,258.326,226.849,258.326,229.077L258.326,229.077z"/>
		</g>
		<path fill="#E8608D" d="M363.299,160.315v-19.761c0-3.52-2.799-6.376-6.249-6.376H155.244c-3.45,0-6.248,2.856-6.248,6.376v19.761
			H363.299z"/>
		<g>
			<g>
				<g>
					<path fill="#E76C8A" d="M97.559,226.53c0.493,9.343,8.204,16.776,17.669,16.776c9.467,0,17.176-7.433,17.67-16.776H97.559z"/>
					<path fill="#FFFFFF" d="M132.898,226.53c0.494,9.343,8.204,16.776,17.67,16.776c9.467,0,17.176-7.433,17.67-16.776H132.898z"/>
					<path fill="#E76C8A" d="M168.239,226.53c0.495,9.343,8.202,16.776,17.669,16.776c9.467,0,17.177-7.433,17.671-16.776H168.239z"
						/>
					<path fill="#FFFFFF" d="M202.989,226.53c0.495,9.343,8.203,16.776,17.67,16.776c9.467,0,17.176-7.433,17.67-16.776H202.989z"/>
					<path fill="#E65782" d="M238.33,226.53c0.495,9.343,8.204,16.776,17.67,16.776s17.176-7.433,17.671-16.776H238.33z"/>
				</g>
				<g>
					<path fill="#E76C8A" d="M414.441,226.53c-0.496,9.343-8.204,16.776-17.669,16.776c-9.469,0-17.179-7.433-17.672-16.776H414.441
						z"/>
					<path fill="#FFFFFF" d="M379.101,226.53c-0.495,9.343-8.203,16.776-17.669,16.776c-9.468,0-17.176-7.433-17.672-16.776H379.101
						z"/>
					<path fill="#E76C8A" d="M343.76,226.53c-0.494,9.343-8.203,16.776-17.67,16.776c-9.466,0-17.174-7.433-17.668-16.776H343.76z"
						/>
					<path fill="#FFFFFF" d="M309.009,226.53c-0.494,9.343-8.201,16.776-17.669,16.776c-9.466,0-17.176-7.433-17.672-16.776H309.009
						z"/>
					<path fill="#E76C8A" d="M273.668,226.53c-0.493,9.343-8.201,16.776-17.668,16.776s-17.176-7.433-17.67-16.776H273.668z"/>
				</g>
				<g>
					<polygon fill="#D45078" points="251.075,226.53 97.511,226.53 148.541,158.961 251.075,158.961 					"/>
					<polygon fill="#D6D6D6" points="247.164,226.53 132.947,226.53 173.229,158.961 251.075,158.961 					"/>
					<polygon fill="#D45078" points="247.164,226.53 168.002,226.53 197.649,158.961 251.075,158.961 					"/>
					<polygon fill="#D6D6D6" points="253.675,226.53 202.989,226.53 222.021,158.961 252.729,158.961 					"/>
					<polygon fill="#D45078" points="256,158.961 246.64,158.961 238.33,226.53 256,226.53 					"/>
				</g>
				<g>
					<polygon fill="#D45078" points="260.924,226.53 414.489,226.53 363.459,158.961 260.924,158.961 					"/>
					<polygon fill="#D6D6D6" points="264.834,226.53 379.052,226.53 338.771,158.961 260.924,158.961 					"/>
					<polygon fill="#D45078" points="264.834,226.53 343.997,226.53 314.352,158.961 260.924,158.961 					"/>
					<polygon fill="#D6D6D6" points="258.325,226.53 309.009,226.53 289.977,158.961 259.271,158.961 					"/>
					<polygon fill="#D45078" points="256,158.961 265.359,158.961 273.671,226.53 256,226.53 					"/>
				</g>
			</g>
			<rect x="252.729" y="158.961" fill="#D45078" width="5.596" height="67.569"/>
		</g>
	</g>
</g>
</svg>
